<svg xmlns="http://www.w3.org/2000/svg" xmlns:xlink="http://www.w3.org/1999/xlink" width="2000" zoomAndPan="magnify" viewBox="0 0 1500 299.999988" height="400" preserveAspectRatio="xMidYMid meet" version="1.0"><defs><g/></defs><path fill="#00661a" d="M 225.855469 139.605469 L -19.429688 139.605469 L 225.855469 139.605469 M 184.894531 180.042969 L 193.988281 197.671875 C 193.988281 197.671875 118.191406 185.148438 118.191406 185.148438 L 86.171875 150.871094 L 128.96875 166.1875 L 184.921875 180.042969 M 86.523438 147 L 131.828125 98.792969 L 101.417969 53.625 L 169.425781 58.453125 L 164.027344 103.769531 L 86.523438 147.023438 M 74.117188 159.625 L 22.734375 216.40625 L 59.328125 141.644531 L 58.699219 102.890625 L 18.390625 86.796875 L 85.417969 82.972656 L 87.957031 124.242188 L 74.144531 159.648438 Z M 74.117188 159.625 " fill-opacity="1" fill-rule="evenodd"/><g fill="#00661a" fill-opacity="1"><g transform="translate(275.882175, 192.089603)"><g><path d="M 82.640625 0 L 45.03125 -48.15625 L 32.109375 -38.25 L 32.109375 0 L 10.1875 0 L 10.1875 -104.859375 L 32.109375 -104.859375 L 32.109375 -57.3125 L 79.296875 -104.859375 L 104.859375 -104.859375 L 60.125 -60.5 L 108.5 0 Z M 82.640625 0 "/></g></g></g><g fill="#00661a" fill-opacity="1"><g transform="translate(385.795145, 192.089603)"><g><path d="M 77.734375 0 L 77.734375 -44.953125 L 32.109375 -44.953125 L 32.109375 0 L 10.1875 0 L 10.1875 -104.859375 L 32.109375 -104.859375 L 32.109375 -63.109375 L 77.734375 -63.109375 L 77.734375 -104.859375 L 99.65625 -104.859375 L 99.65625 0 Z M 77.734375 0 "/></g></g></g><g fill="#00661a" fill-opacity="1"><g transform="translate(495.708115, 192.089603)"><g><path d="M 129.609375 -89.234375 C 129.609375 -73.410156 123.640625 -63.289062 111.703125 -58.875 L 112 -52.921875 C 112 -42.003906 109.84375 -32.398438 105.53125 -24.109375 C 101.21875 -15.828125 95.046875 -9.488281 87.015625 -5.09375 C 78.992188 -0.707031 69.632812 1.484375 58.9375 1.484375 C 42.488281 1.484375 29.59375 -3.363281 20.25 -13.0625 C 10.914062 -22.757812 6.25 -36.046875 6.25 -52.921875 C 6.25 -69.734375 10.90625 -82.851562 20.21875 -92.28125 C 29.53125 -101.707031 42.484375 -106.421875 59.078125 -106.421875 C 72.609375 -106.421875 83.832031 -103.171875 92.75 -96.671875 C 101.664062 -90.171875 107.488281 -80.941406 110.21875 -68.984375 C 116.3125 -72.117188 119.359375 -77.628906 119.359375 -85.515625 L 110.0625 -85.515625 L 110.0625 -104.859375 L 129.609375 -104.859375 Z M 89.625 -52.921875 C 89.625 -64.234375 86.945312 -73.097656 81.59375 -79.515625 C 76.25 -85.941406 68.742188 -89.15625 59.078125 -89.15625 C 49.273438 -89.15625 41.695312 -85.96875 36.34375 -79.59375 C 30.988281 -73.21875 28.3125 -64.328125 28.3125 -52.921875 C 28.3125 -41.410156 31.046875 -32.34375 36.515625 -25.71875 C 41.992188 -19.09375 49.46875 -15.78125 58.9375 -15.78125 C 68.75 -15.78125 76.316406 -19.003906 81.640625 -25.453125 C 86.960938 -31.898438 89.625 -41.054688 89.625 -52.921875 Z M 64.359375 -124.140625 C 64.359375 -127.210938 60.71875 -128.75 53.4375 -128.75 C 50.863281 -128.75 48.1875 -128.550781 45.40625 -128.15625 L 44.59375 -135.75 C 47.320312 -136.289062 51.457031 -136.5625 57 -136.5625 C 63.988281 -136.5625 69.316406 -135.582031 72.984375 -133.625 C 76.648438 -131.664062 78.484375 -128.875 78.484375 -125.25 C 78.484375 -122.625 77.390625 -120.414062 75.203125 -118.625 C 73.023438 -116.84375 69.609375 -115.78125 64.953125 -115.4375 L 64.953125 -110.96875 L 53.8125 -110.96875 L 53.8125 -119.890625 C 60.84375 -119.890625 64.359375 -121.304688 64.359375 -124.140625 Z M 64.359375 -124.140625 "/></g></g></g><g fill="#00661a" fill-opacity="1"><g transform="translate(625.537688, 192.089603)"><g><path d="M 10.1875 0 L 10.1875 -104.859375 L 32.109375 -104.859375 L 32.109375 0 Z M 10.1875 0 "/></g></g></g><g fill="#00661a" fill-opacity="1"><g transform="translate(667.823329, 192.089603)"><g/></g></g><g fill="#00661a" fill-opacity="1"><g transform="translate(710.10897, 192.089603)"><g><path d="M 10.1875 0 L 10.1875 -104.859375 L 32.109375 -104.859375 L 32.109375 -16.96875 L 88.296875 -16.96875 L 88.296875 0 Z M 10.1875 0 "/></g></g></g><g fill="#00661a" fill-opacity="1"><g transform="translate(803.077964, 192.089603)"><g><path d="M 112 -52.921875 C 112 -42.003906 109.84375 -32.398438 105.53125 -24.109375 C 101.21875 -15.828125 95.046875 -9.488281 87.015625 -5.09375 C 78.992188 -0.707031 69.632812 1.484375 58.9375 1.484375 C 42.488281 1.484375 29.59375 -3.363281 20.25 -13.0625 C 10.914062 -22.757812 6.25 -36.046875 6.25 -52.921875 C 6.25 -69.734375 10.90625 -82.851562 20.21875 -92.28125 C 29.53125 -101.707031 42.484375 -106.421875 59.078125 -106.421875 C 75.679688 -106.421875 88.648438 -101.65625 97.984375 -92.125 C 107.328125 -82.601562 112 -69.535156 112 -52.921875 Z M 89.625 -52.921875 C 89.625 -64.234375 86.945312 -73.097656 81.59375 -79.515625 C 76.25 -85.941406 68.742188 -89.15625 59.078125 -89.15625 C 49.273438 -89.15625 41.695312 -85.96875 36.34375 -79.59375 C 30.988281 -73.21875 28.3125 -64.328125 28.3125 -52.921875 C 28.3125 -41.410156 31.046875 -32.34375 36.515625 -25.71875 C 41.992188 -19.09375 49.46875 -15.78125 58.9375 -15.78125 C 68.75 -15.78125 76.316406 -19.003906 81.640625 -25.453125 C 86.960938 -31.898438 89.625 -41.054688 89.625 -52.921875 Z M 48.6875 27.234375 L 48.6875 11.828125 L 69.5625 11.828125 L 69.5625 27.234375 Z M 86.578125 -116.03125 L 86.578125 -113.875 L 74.765625 -113.875 L 59.671875 -125.109375 L 59.375 -125.109375 L 43.703125 -113.875 L 31.8125 -113.875 L 31.8125 -116.03125 L 50.984375 -136.5625 L 68 -136.5625 Z M 86.578125 -116.03125 "/></g></g></g><g fill="#00661a" fill-opacity="1"><g transform="translate(921.462917, 192.089603)"><g><path d="M 59.078125 -15.78125 C 72.304688 -15.78125 81.5 -22.425781 86.65625 -35.71875 L 105.75 -28.5 C 101.644531 -18.382812 95.613281 -10.859375 87.65625 -5.921875 C 79.707031 -0.984375 70.179688 1.484375 59.078125 1.484375 C 42.234375 1.484375 29.21875 -3.289062 20.03125 -12.84375 C 10.84375 -22.394531 6.25 -35.753906 6.25 -52.921875 C 6.25 -70.128906 10.679688 -83.347656 19.546875 -92.578125 C 28.410156 -101.804688 41.265625 -106.421875 58.109375 -106.421875 C 70.398438 -106.421875 80.410156 -103.953125 88.140625 -99.015625 C 95.867188 -94.078125 101.296875 -86.820312 104.421875 -77.25 L 85.09375 -71.96875 C 83.457031 -77.226562 80.25 -81.40625 75.46875 -84.5 C 70.6875 -87.601562 65.050781 -89.15625 58.5625 -89.15625 C 48.65625 -89.15625 41.132812 -86.078125 36 -79.921875 C 30.875 -73.773438 28.3125 -64.773438 28.3125 -52.921875 C 28.3125 -40.859375 30.945312 -31.648438 36.21875 -25.296875 C 41.5 -18.953125 49.117188 -15.78125 59.078125 -15.78125 Z M 59.078125 -15.78125 "/></g></g></g><g fill="#00661a" fill-opacity="1"><g transform="translate(1031.375899, 192.089603)"><g/></g></g><g fill="#00661a" fill-opacity="1"><g transform="translate(1073.66154, 192.089603)"><g><path d="M 96.3125 -71.671875 C 96.3125 -64.921875 94.773438 -58.890625 91.703125 -53.578125 C 88.628906 -48.273438 84.234375 -44.171875 78.515625 -41.265625 C 72.796875 -38.367188 65.992188 -36.921875 58.109375 -36.921875 L 32.109375 -36.921875 L 32.109375 0 L 10.1875 0 L 10.1875 -104.859375 L 57.21875 -104.859375 C 69.757812 -104.859375 79.410156 -101.96875 86.171875 -96.1875 C 92.929688 -90.414062 96.3125 -82.242188 96.3125 -71.671875 Z M 74.25 -71.296875 C 74.25 -82.316406 67.753906 -87.828125 54.765625 -87.828125 L 32.109375 -87.828125 L 32.109375 -53.8125 L 55.359375 -53.8125 C 61.410156 -53.8125 66.070312 -55.3125 69.34375 -58.3125 C 72.613281 -61.3125 74.25 -65.640625 74.25 -71.296875 Z M 74.25 -71.296875 "/></g></g></g><g fill="#00661a" fill-opacity="1"><g transform="translate(1175.176856, 192.089603)"><g><path d="M 77.734375 0 L 77.734375 -44.953125 L 32.109375 -44.953125 L 32.109375 0 L 10.1875 0 L 10.1875 -104.859375 L 32.109375 -104.859375 L 32.109375 -63.109375 L 77.734375 -63.109375 L 77.734375 -104.859375 L 99.65625 -104.859375 L 99.65625 0 Z M 77.734375 0 "/></g></g></g><g fill="#00661a" fill-opacity="1"><g transform="translate(1285.089792, 192.089603)"><g><path d="M 84.203125 0 L 74.90625 -26.796875 L 35 -26.796875 L 25.71875 0 L 3.796875 0 L 41.984375 -104.859375 L 67.859375 -104.859375 L 105.90625 0 Z M 54.921875 -88.71875 L 54.46875 -87.078125 C 53.976562 -85.285156 53.382812 -83.25 52.6875 -80.96875 C 52 -78.6875 47.738281 -66.132812 39.90625 -43.3125 L 70 -43.3125 L 59.671875 -73.453125 L 56.484375 -83.578125 Z M 42.59375 -113.875 L 42.59375 -116.171875 L 61.3125 -135.078125 L 80.5 -135.078125 L 80.5 -131.875 L 55.21875 -113.875 Z M 42.59375 -113.875 "/></g></g></g><g fill="#00661a" fill-opacity="1"><g transform="translate(1395.002729, 192.089603)"><g><path d="M 57.453125 -87.890625 L 57.453125 0 L 35.53125 0 L 35.53125 -87.890625 L 1.703125 -87.890625 L 1.703125 -104.859375 L 91.34375 -104.859375 L 91.34375 -87.890625 Z M 57.453125 -87.890625 "/></g></g></g></svg>